# xmcd
#
# Track frame offsets: 
#        150
#        18236
#        33975
#        52103
#        72777
#        86897
#        108543
#        120475
#        136817
#        159080
#        178828
#
# Disc length: 2612 seconds
#
# Revision: 0
# Processed by: cddbd v1.5.2PL0 Copyright (c) Steve Scherf et al.
# Submitted via: ExactAudioCopy v1.3
#
DISCID=8c0a320b
DTITLE=Greg Copeland - Brown-Eyed Handsome Man
DYEAR=2019
DGENRE=Blues
TTITLE0=Brown-Eyed Handsome Man
TTITLE1=Hip to You
TTITLE2=Alcohol Abuse
TTITLE3=A Girl Like You
TTITLE4=I Gotcha
TTITLE5=Oh No
TTITLE6=People Get Ready (feat. Big Daddy Wilson)
TTITLE7=Working in a Coal Mine
TTITLE8=Talking 'Bout the South
TTITLE9=Please Please
TTITLE10=This Is Love
EXTD=
EXTT0=
EXTT1=
EXTT2=
EXTT3=
EXTT4=
EXTT5=
EXTT6=
EXTT7=
EXTT8=
EXTT9=
EXTT10=
PLAYORDER=
